<svg xmlns="http://www.w3.org/2000/svg" xml:space="preserve" style="enable-background:new 0 0 64 64" viewBox="0 0 64 64"><linearGradient id="a" x1="7.047" x2="54.804" y1="58.111" y2="8.137" gradientUnits="userSpaceOnUse"><stop offset="0" style="stop-color:#69dfff"/><stop offset="1" style="stop-color:#bc8dff"/></linearGradient><path d="M52.89 64H11.11C4.974 64 0 59.026 0 52.89V11.11C0 4.974 4.974 0 11.11 0h41.78C59.026 0 64 4.974 64 11.11v41.78C64 59.026 59.026 64 52.89 64z" style="fill:url(#a)"/><path d="M27.405 45.148a.239.239 0 0 0 .007.253c.077.133.188.133.23.133h4.398l16.253-28.151a4.427 4.427 0 0 0 .204-4.084c-.742-1.629-2.408-2.637-4.198-2.637H29.492v.004c-1.099.046-2.031.901-2.08 2.008a2.107 2.107 0 0 0 2.08 2.202v.001h1.669l-18.324 31.74a4.44 4.44 0 0 0 .08 4.615c.828 1.331 2.317 2.107 3.885 2.107h25.116c1.082 0 2.031-.793 2.15-1.868a2.109 2.109 0 0 0-2.095-2.348H16.718c-.042 0-.153 0-.23-.133a.244.244 0 0 1 0-.265l19.528-33.847h8.394c.042 0 .153 0 .23.133a.244.244 0 0 1 0 .265L27.405 45.148z" style="fill:#fff"/></svg>